<?xml version="1.0" standalone="no"?>
<!DOCTYPE svg PUBLIC "-//W3C//DTD SVG 1.1//EN" "http://www.w3.org/Graphics/SVG/1.1/DTD/svg11.dtd">
<svg t="1736575779587" class="icon" viewBox="0 0 1024 1024" version="1.1"
    xmlns="http://www.w3.org/2000/svg" p-id="23026" xmlns:xlink="http://www.w3.org/1999/xlink" width="200" height="200">
    <path
        d="M513.34066295 42.76778523a467.89155025 467.89155025 0 0 1 341.0200985 146.89202761c8.75900115-14.79198675 16.35609485-30.61181518 22.79127951-47.37010907 14.16634417 43.12467509 25.91949408 84.01491143 35.25944819 122.76008518A466.81902053 466.81902053 0 0 1 982.57287773 512c0 259.15024811-210.03727703 469.23221477-469.23221478 469.23221477-259.10556001 0-469.23221477-210.08196511-469.2322132-469.23221477s210.12665478-469.23221477 469.2322132-469.23221477z m0 61.4023874a407.82982737 407.82982737 0 0 0-299.41484027 684.67683326c5.40734301-16.53484876 14.30040998-30.07555031 34.09754073-34.23160654 24.44476375-5.18389943 51.03459009 24.48945341 44.55471579 46.20820004-4.29012363 14.38978772-18.36709005 24.89165245-31.86310195 31.37152515a408.00858284 408.00858284 0 0 0 640.1668071-192.69802863c-6.97144953 12.51285835-14.88136451 24.13194244-23.6850553 34.9466285-124.77108039 152.25468098-321.26765586 107.11901068-505.29606107 111.81133333 288.42140034-97.55561145 442.50832261-227.599969 462.2160756-390.08838148-54.96720276 95.94681527-131.65315216 173.70529755-230.10254097 233.27544367a738.39275082 738.39275082 0 0 1-316.66471094 105.24208285c-87.76876863-86.15997247-100.37100473-174.95658274-37.80670984-266.43452049 93.89113198-137.194561 297.00164758-92.77391259 437.45848901-144.79165467 53.04558529-19.66306492 96.39370396-47.54886455 130.04435755-83.65740049a406.66791834 406.66791834 0 0 0-303.6602758-135.6304545z"
        p-id="23027"></path>
</svg>