<?xml version="1.0" standalone="no"?><!DOCTYPE svg PUBLIC "-//W3C//DTD SVG 1.1//EN" "http://www.w3.org/Graphics/SVG/1.1/DTD/svg11.dtd">
<svg t="1736753050388" class="icon" viewBox="0 0 1024 1024" version="1.1"
    xmlns="http://www.w3.org/2000/svg" p-id="9557"
    xmlns:xlink="http://www.w3.org/1999/xlink" width="200" height="200">
    <path d="M890.24 272.832l-360.256-208a36.032 36.032 0 0 0-35.968 0l-360.32 208a36.032 36.032 0 0 0-17.92 31.168v416c0 12.864 6.784 24.768 17.92 31.168l360.32 208c11.136 6.4 24.832 6.4 35.968 0l360.32-208a36.032 36.032 0 0 0 17.92-31.168v-416a36.032 36.032 0 0 0-17.92-31.168zM512 137.6l324.288 187.2v346.752l-135.744-78.656V417.024a24 24 0 0 0-12.032-20.8l-164.48-94.976a24 24 0 0 0-24.064 0L335.488 396.16a24 24 0 0 0-12.032 20.8v175.872l-135.68 78.656V324.8L512 137.6z m140.544 293.248v162.304L512 674.304 371.456 593.152V430.848L512 349.696l140.544 81.152zM512 886.4l-300.16-173.312 135.424-78.528 152.704 88.192a24 24 0 0 0 24 0l152.768-88.192 135.488 78.528L512 886.4zM424.704 438.656a20.032 20.032 0 1 0-19.968 34.688l87.296 50.24v104.64a20.032 20.032 0 0 0 40 0V523.584l87.232-50.24a20.032 20.032 0 1 0-20.032-34.688L512 488.96l-87.296-50.24z"  p-id="9558"></path>
</svg>