<?xml version="1.0" standalone="no"?><!DOCTYPE svg PUBLIC "-//W3C//DTD SVG 1.1//EN" "http://www.w3.org/Graphics/SVG/1.1/DTD/svg11.dtd"><svg t="1736682072700" class="icon" viewBox="0 0 1024 1024" version="1.1" xmlns="http://www.w3.org/2000/svg" p-id="4792" xmlns:xlink="http://www.w3.org/1999/xlink" width="200" height="200"><path d="M725.2 235.8c-16.4-10.2-35.7-15.2-58.1-15.2-21.9 0-41.3 5-58 15.2-16.3 10.2-24.5 22.2-24.5 35.9 0 14.3 8.2 26.3 24.5 35.9 16.7 10.2 36.1 15.4 58 15.4 22.4 0 41.7-5.2 58.1-15.4 15.7-9.6 23.6-21.6 23.6-35.9 0-13.7-7.9-25.7-23.6-35.9z" fill="#1296db" p-id="4793"></path><path d="M809.9 348.1c-8.6 5.6-18.3 11.2-29 16.9L609.1 466.6c-2.6 1.5-5.2 3-7.7 4.5-29.6 14.3-59.3 21.4-89.3 21.4V1012h5.3c42.3-1.5 84.3-14.8 126-39.7h0.8L875.7 824h0.7c70.3-41.7 104.9-107.4 103.9-197V367.2c-1-22.9-4.6-43.7-10.7-62.6-3-9.7-7.2-18.9-12.2-27.5 0-1.5-0.5-2.8-1.6-3.9-1.5-3.5-3.2-6.6-5.3-9.1-14.7-24.5-35.4-44.8-61.8-61.1h-0.9L602.9 32.6c-0.5-1-1.2-1.5-2.2-1.5-29.6-13.3-59.1-19.6-88.6-19.1v45.8c23.3-0.5 46.7 4.6 70.2 15.3l257.5 153.5c43.8 38.8 33.8 79.3-29.9 121.5z m71.1 23h1.5c33.7 0.5 50.9 24.9 51.9 73.3v183.3c1.6 71.3-25.6 123.5-81.6 156.6l-0.9 0.8-216.1 137.5c-17.9 11.2-33.6 16.6-47.4 16-9.1-1-17.1-3.8-23.6-8.3-6.2-5.2-12-13.8-17.6-26-5.1-12.3-7.6-30-7.6-53.5v-165c2-78 32.3-137.5 90.8-178.8l197.1-117.6c17.8-9.7 35.7-15.8 53.5-18.3z" fill="#1296db" p-id="4794"></path><path d="M884.1 442.8c-11.3-5-24.8-4-40.5 3.1-14.3 6.2-26.8 17.1-37.4 32.8-11.3 14.9-16.9 30.1-16.9 45.9 0 14.7 5.6 25.2 16.9 31.4 10.6 6.5 23.1 6.3 37.4-0.8 15.7-6.7 29.2-18.1 40.5-34.4 10.1-15.8 15.2-31.1 15.2-45.8 0-15.9-5.1-26.5-15.2-32.2zM774.8 671.3c10.2-15.8 15.3-31.1 15.3-45.8 0-15.8-5.1-26.8-15.3-32.9-11.2-5.1-24.2-4.1-39 3.1-15.2 6.6-28.2 17.8-38.9 33.5-10.7 14.8-16.1 30.1-16.1 45.9 0 14.7 5.4 24.9 16.1 30.6 10.7 6.6 23.7 6.3 38.9-0.8 14.8-6.7 27.8-17.9 39-33.6zM681.6 775.2c0-15.8-5.3-26.5-16-32.1-11.3-5.1-24.3-4.1-39 3.1-15.3 6.6-28.3 17.6-38.9 32.8-10.8 15.3-16.1 30.5-16.1 45.8s5.3 25.7 16.1 31.4c10.6 6.6 23.6 6.3 38.9-0.8 14.7-6.6 27.7-18.1 39-34.4 10.7-15.7 16-31.1 16-45.8zM512 57.8V12c-29.6-0.5-59.1 5.8-88.6 19.1-1 0-1.7 0.5-2.3 1.5L136.2 203h-0.8c-26.4 16.3-47.1 36.6-61.8 61.1-2.1 2.5-3.8 5.6-5.4 9.1-1 1.1-1.5 2.4-1.5 3.9-5.1 8.6-9.2 17.8-12.3 27.5-6.1 18.9-9.6 39.7-10.7 62.6V627c-1 89.6 33.6 155.3 103.9 197h0.8l231.5 148.3h0.8c41.7 24.9 83.7 38.2 126 39.7h5.3V492.5c-30.1 0-59.8-7.1-89.3-21.4-2.6-1.5-5.1-3-7.7-4.5L243.1 365c-10.6-5.7-20.4-11.3-29-16.9-63.6-42.2-73.6-82.7-29.8-121.5L441.7 73.1c23.5-10.7 46.9-15.8 70.3-15.3zM141.6 371.1h1.5c17.8 2.5 35.6 8.6 53.5 18.3l197 117.6c58.6 41.3 88.8 100.8 90.9 178.8v165c0 23.5-2.6 41.2-7.6 53.5-5.6 12.2-11.5 20.8-17.6 26-6.6 4.5-14.5 7.3-23.6 8.3-13.8 0.6-29.6-4.8-47.5-16L172.1 785.1l-0.8-0.8c-56-33.1-83.2-85.3-81.7-156.6V444.4c1-48.4 18.3-72.8 52-73.3z" fill="#1296db" p-id="4795"></path><path d="M280.6 578.8c-18.9-8.6-35.2-9.6-49-3-12.7 7.2-19 20.1-19 38.9 0 18.9 6.3 37.8 19 56.6 13.8 20.4 30.1 34.6 49 42.7 18.3 8.7 34.3 9.2 48.1 1.6 12.7-7.1 19.1-20.1 19.1-38.9 0-18.9-6.4-37.7-19.1-56.6-13.8-18.9-29.8-32.6-48.1-41.3zM404.3 235.8c-16.3-10.2-35.6-15.2-58.1-15.2-21.8 0-41.2 5-58 15.2-16.3 10.2-24.5 22.2-24.5 35.9 0 14.3 8.2 26.3 24.5 35.9 16.8 10.2 36.2 15.4 58 15.4 22.5 0 41.8-5.2 58.1-15.4 16.3-9.6 24.4-21.6 24.4-35.9 0-13.7-8.1-25.7-24.4-35.9z" fill="#1296db" p-id="4796"></path></svg>