<?xml version="1.0" standalone="no"?>
<!DOCTYPE svg PUBLIC "-//W3C//DTD SVG 1.1//EN" "http://www.w3.org/Graphics/SVG/1.1/DTD/svg11.dtd">
<svg t="1736533223851" class="icon" viewBox="0 0 1024 1024" version="1.1"
    xmlns="http://www.w3.org/2000/svg" p-id="21807" xmlns:xlink="http://www.w3.org/1999/xlink"
    width="200" height="200">
    <path
        d="M640 512a128 128 0 1 1-256 0 128 128 0 0 1 256 0z m-85.333333 0a42.666667 42.666667 0 1 1-85.333334 0 42.666667 42.666667 0 0 1 85.333334 0z"
         p-id="21808"></path>
    <path
        d="M512 810.666667a298.666667 298.666667 0 1 0 0-597.333334 298.666667 298.666667 0 0 0 0 597.333334z m0-85.333334a213.333333 213.333333 0 1 0 0-426.666666 213.333333 213.333333 0 0 0 0 426.666666z"
         p-id="21809"></path>
    <path
        d="M512 981.333333c259.2 0 469.333333-210.133333 469.333333-469.333333S771.2 42.666667 512 42.666667 42.666667 252.8 42.666667 512s210.133333 469.333333 469.333333 469.333333z m0-85.333333a384 384 0 1 0 0-768 384 384 0 0 0 0 768z"
        p-id="21810"></path>
</svg>